# xmcd
#
# Track frame offsets:
# 150
# 16575
# 41426
# 66888
# 83866
# 148971
# 170149
#
# Disc length: 2603 seconds
#
# Revision: 0
# Processed by: cddbd v1.5.1PL2 Copyright (c) Steve Scherf et al.
# Submitted via: Audion 3.0.2 (http://www.panic.com/audion/)
#
DISCID=5a0a2907
DTITLE=larry hirshberg - packing for nowhere
DYEAR=1900
DGENRE=
TTITLE0=packing for norway
TTITLE1=the pine hen
TTITLE2=packing for philly
TTITLE3=the tastemaker
TTITLE4=titan's feedbag
TTITLE5=the wagon
TTITLE6=nothin' doin'
EXTD=
EXTT0=
EXTT1=
EXTT2=
EXTT3=
EXTT4=
EXTT5=
EXTT6=
PLAYORDER=
